<svg
              id="logo"
              xmlns="http://www.w3.org/2000/svg"
              role="img"
              viewBox="0 0 84 96"
            >
              <title>Logo</title>
              <g transform="translate(-8.000000, -2.000000)">
                <g transform="translate(11.000000, 5.000000)">
                  <!-- Outer polygon (hexagonal shape) -->
                  <polygon
                    id="Shape"
                    stroke="#64ffda"
                    stroke-width="5"
                    stroke-linecap="round"
                    stroke-linejoin="round"
                    points="39 0 0 22 0 67 39 90 78 68 78 23"
                  ></polygon>

                  <!-- Roboto "R" as SVG path -->
                  <path
                    d="M29,30 L35,30 C41,30 45,33.5 45,39 C45,42.7 43.1,45.1 40,46.2 L46,56.5 L41,56.5 L35.5,47.5 L33.5,47.5 L33.5,56.5 L29,56.5 L29,30 Z M33.5,34.2 L33.5,43.5 L35.6,43.5 C39.3,43.5 41.3,42 41.3,39 C41.3,36.1 39.3,34.2 35.6,34.2 L33.5,34.2 Z"
                    fill="#64ffda"
                  ></path>
                </g>
              </g>
            </svg>